<svg xmlns="http://www.w3.org/2000/svg" viewBox="0 0 100 100">
  <rect width="100" height="100" fill="#0a0a0a" rx="20"/>
  <path d="M50 25c-3.5 0-6.5 1.5-8.5 4-2-2.5-5-4-8.5-4-6 0-11 5-11 11 0 3 1 5.5 3 7.5-2 2-3 4.5-3 7.5 0 6 5 11 11 11 2 0 4-.5 5.5-1.5 1.5 4 5.5 7 10 7h2c4.5 0 8.5-3 10-7 1.5 1 3.5 1.5 5.5 1.5 6 0 11-5 11-11 0-3-1-5.5-3-7.5 2-2 3-4.5 3-7.5 0-6-5-11-11-11-3.5 0-6.5 1.5-8.5 4-2-2.5-5-4-8.5-4zm0 5c2.5 0 4.5 2 4.5 4.5 0 1-.5 2-1 2.5 1 1 1.5 2.5 1.5 4 0 3-2.5 5.5-5.5 5.5h-1c-3 0-5.5-2.5-5.5-5.5 0-1.5.5-3 1.5-4-.5-.5-1-1.5-1-2.5 0-2.5 2-4.5 4.5-4.5zm-17 2c3.5 0 6.5 3 6.5 6.5s-3 6.5-6.5 6.5-6.5-3-6.5-6.5 3-6.5 6.5-6.5zm34 0c3.5 0 6.5 3 6.5 6.5s-3 6.5-6.5 6.5-6.5-3-6.5-6.5 3-6.5 6.5-6.5zm-17 16c3.5 0 6.5 3 6.5 6.5s-3 6.5-6.5 6.5-6.5-3-6.5-6.5 3-6.5 6.5-6.5z" fill="#9ca3af"/>
</svg>
